# xmcd CD database file
#
# Track frame offsets:
#	150
#	30093
#	57972
#	88017
#	110236
#	141753
#	164469
#	193681
#	222734
#	244521
#	259646
#
# Disc length: 3803 seconds
#
# Revision: 0
# Processed by: cddbd v1.5.2PL0 Copyright (c) Steve Scherf et al.
# Submitted via: CDex 1.70beta2
#
DISCID=9b0ed90b
DTITLE=KEN OTA - SWINGROOVE
DYEAR=2006
DGENRE=Jazz
TTITLE0=SWINGROOVE
TTITLE1=OFF THE TRACK
TTITLE2=EMJ
TTITLE3=THE DAYS OF WINE AND ROSES
TTITLE4=SET YOUR MIND AT REST
TTITLE5=SUNDAY MORNING
TTITLE6=HEAVEN KNOWS
TTITLE7=THREE GIRLS ON THE THREE RINGS
TTITLE8=LOSE MY BREATH
TTITLE9=OMOI-GA KASANARU SONO MAE-NI
TTITLE10=NEW BALLAD (END OF A DAY)
EXTD=YEAR: 2006
EXTT0=
EXTT1=
EXTT2=
EXTT3=
EXTT4=
EXTT5=
EXTT6=
EXTT7=
EXTT8=
EXTT9=
EXTT10=
PLAYORDER=
